<svg width="40" height="40" viewBox="0 0 40 40" fill="none" xmlns="http://www.w3.org/2000/svg">
<g clip-path="url(#clip0_87_91)">
<path d="M34.0371 33.9694H28.1181V24.7183C28.1181 22.5123 28.0786 19.6725 25.0395 19.6725C21.9567 19.6725 21.485 22.0761 21.485 24.5577V33.9688H15.5659V14.9448H21.2482V17.5447H21.3278C21.8965 16.5743 22.7182 15.776 23.7055 15.2349C24.6928 14.6937 25.8087 14.4299 26.9343 14.4716C32.9335 14.4716 34.0396 18.4098 34.0396 23.5332L34.0371 33.9694ZM8.88724 12.3444C8.20788 12.3445 7.54372 12.1436 6.97878 11.767C6.41385 11.3904 5.97352 10.8551 5.71343 10.2288C5.45334 9.60241 5.38517 8.91316 5.51759 8.24815C5.65001 7.58314 5.97705 6.97226 6.45735 6.49275C6.93764 6.01324 7.54963 5.68664 8.21591 5.55424C8.8822 5.42185 9.57284 5.48962 10.2005 5.74897C10.8282 6.00832 11.3648 6.4476 11.7423 7.01128C12.1198 7.57496 12.3214 8.23771 12.3215 8.91572C12.3216 9.3659 12.2328 9.81169 12.0603 10.2276C11.8878 10.6436 11.6348 11.0215 11.3159 11.3399C10.997 11.6583 10.6184 11.9109 10.2017 12.0832C9.78496 12.2556 9.33832 12.3443 8.88724 12.3444ZM11.8468 33.9694H5.92154V14.9448H11.8468V33.9694ZM36.988 0.00247208H2.94722C2.17459 -0.0062297 1.43006 0.291557 0.877318 0.830396C0.324571 1.36923 0.00881919 2.10504 -0.000610352 2.87612V36.9901C0.00849645 37.7616 0.324063 38.4979 0.876791 39.0373C1.42952 39.5767 2.1742 39.8751 2.94722 39.8669H36.988C37.7626 39.8765 38.5094 39.579 39.0643 39.0396C39.6192 38.5003 39.9369 37.7631 39.9476 36.9901V2.87366C39.9365 2.10105 39.6186 1.36441 39.0637 0.825581C38.5088 0.286756 37.7622 -0.0101801 36.988 9.71754e-06" fill="#A5C8F9"/>
</g>
<defs>
<clipPath id="clip0_87_91">
<rect width="40" height="40" fill="white"/>
</clipPath>
</defs>
</svg>
