<svg width="29" height="19" viewBox="0 0 29 19" fill="none" xmlns="http://www.w3.org/2000/svg">
<path d="M11.472 19V17.4H13.392V5.944C13.392 3.40533 12.2507 2.136 9.968 2.136C7.92 2.136 6.064 2.904 4.4 4.44V17.4H6.32V19H0.24V17.4H2.16V2.296H0.24V0.695999H2.16H3.664L4.176 2.68C5.968 1.05867 7.99467 0.247999 10.256 0.247999C12.688 0.247999 14.2987 1.13333 15.088 2.904C15.8347 2.15733 16.784 1.528 17.936 1.016C19.1093 0.503999 20.2933 0.247999 21.488 0.247999C25.072 0.247999 26.864 2.14667 26.864 5.944V17.4H28.784V19H22.704V17.4H24.624V5.944C24.624 3.40533 23.4827 2.136 21.2 2.136C19.1307 2.136 17.2427 2.92533 15.536 4.504C15.6 4.952 15.632 5.432 15.632 5.944V17.4H17.552V19H11.472Z" fill="#A5C8F9"/>
</svg>
