<svg width="126" height="63" viewBox="0 0 126 63" fill="none" xmlns="http://www.w3.org/2000/svg">
<circle cx="10.5" cy="10.5" r="10.5" transform="matrix(1 0 0 -1 69 62.4828)" fill="#FBBC03"/>
<rect width="40.4096" height="20.9601" rx="2" transform="matrix(0.859614 -0.510945 -0.510945 -0.859614 83.7378 61.6647)" fill="#FBBC03"/>
<circle cx="10.5" cy="10.5" r="10.5" transform="matrix(-1 0 0 1 124.474 21)" fill="#FBBC03"/>
<rect width="40.4096" height="20.9601" rx="2" transform="matrix(-0.859614 0.510945 0.510945 0.859614 109.737 21.8181)" fill="#FBBC03"/>
<circle cx="80.5" cy="10.5" r="10.5" fill="#21A94C"/>
<rect x="84.7378" y="0.818115" width="40.4096" height="20.9601" rx="2" transform="rotate(30.7268 84.7378 0.818115)" fill="#21A94C"/>
<circle cx="114.974" cy="30.9828" r="10.5" transform="rotate(180 114.974 30.9828)" fill="#21A94C"/>
<rect x="110.737" y="40.6647" width="40.4096" height="20.9601" rx="2" transform="rotate(-149.273 110.737 40.6647)" fill="#21A94C"/>
<circle cx="10.5" cy="10.5" r="10.5" transform="matrix(-1 0 0 1 56.4745 0)" fill="#F23822"/>
<rect width="40.4096" height="20.9601" rx="2" transform="matrix(-0.859614 0.510945 0.510945 0.859614 41.7366 0.818115)" fill="#F23822"/>
<circle cx="10.5" cy="10.5" r="10.5" transform="matrix(1 0 0 -1 1 41.4828)" fill="#FBBC03"/>
<rect width="40.4096" height="20.9601" rx="2" transform="matrix(0.859614 -0.510945 -0.510945 -0.859614 15.7378 40.6647)" fill="#F23822"/>
<circle cx="44.9745" cy="51.9828" r="10.5" transform="rotate(-180 44.9745 51.9828)" fill="#3785FB"/>
<rect x="40.7366" y="61.6647" width="40.4096" height="20.9601" rx="2" transform="rotate(-149.273 40.7366 61.6647)" fill="#3785FB"/>
<circle cx="10.5" cy="31.5" r="10.5" fill="#3785FB"/>
<rect x="14.7378" y="21.8181" width="40.4096" height="20.9601" rx="2" transform="rotate(30.7268 14.7378 21.8181)" fill="#3785FB"/>
</svg>
