<svg width="1440" height="1150" viewBox="0 0 1440 1150" fill="none" xmlns="http://www.w3.org/2000/svg">
<g clip-path="url(#clip0_38_64)">
<rect width="1442" height="1150" transform="translate(-2)" fill="#202020"/>
<rect width="1442" height="1150" transform="translate(-2)" fill="url(#paint0_linear_38_64)" fill-opacity="0.2"/>
<rect x="551" y="32.2896" width="1025" height="1368.69" transform="rotate(-15 551 32.2896)" fill="#202020"/>
<rect x="551" y="32.2896" width="1025" height="1368.69" transform="rotate(-15 551 32.2896)" fill="url(#paint1_linear_38_64)" fill-opacity="0.2"/>
<path opacity="0.3" d="M1399.93 182.848C1309.55 121.889 1198.38 99.7549 1090.85 121.316C983.329 142.877 888.269 206.367 826.584 297.819C764.899 389.271 741.642 501.193 761.93 608.964C782.217 716.735 844.388 811.527 934.764 872.487L1047.13 705.892C1000.42 674.384 968.288 625.39 957.802 569.687C947.316 513.984 959.336 456.135 991.219 408.867C1023.1 361.599 1072.23 328.783 1127.81 317.639C1183.38 306.495 1240.85 317.935 1287.56 349.443L1399.93 182.848Z" fill="url(#paint2_linear_38_64)" fill-opacity="0.2"/>
<g style="mix-blend-mode:color-dodge" filter="url(#filter0_f_38_64)">
<ellipse cx="719" cy="81" rx="1050" ry="840" fill="#756161" fill-opacity="0.45"/>
</g>
</g>
<defs>
<filter id="filter0_f_38_64" x="-485" y="-913" width="2408" height="1988" filterUnits="userSpaceOnUse" color-interpolation-filters="sRGB">
<feFlood flood-opacity="0" result="BackgroundImageFix"/>
<feBlend mode="normal" in="SourceGraphic" in2="BackgroundImageFix" result="shape"/>
<feGaussianBlur stdDeviation="77" result="effect1_foregroundBlur_38_64"/>
</filter>
<linearGradient id="paint0_linear_38_64" x1="721" y1="0" x2="721" y2="1150" gradientUnits="userSpaceOnUse">
<stop stop-color="#756161" stop-opacity="0"/>
<stop offset="0.84" stop-color="#756161"/>
</linearGradient>
<linearGradient id="paint1_linear_38_64" x1="1063.5" y1="32.2896" x2="1063.5" y2="1400.98" gradientUnits="userSpaceOnUse">
<stop stop-color="#302727" stop-opacity="0"/>
<stop offset="0.745" stop-color="#756161"/>
</linearGradient>
<linearGradient id="paint2_linear_38_64" x1="1179.17" y1="15.8848" x2="1391.36" y2="715.7" gradientUnits="userSpaceOnUse">
<stop stop-color="#737070"/>
<stop offset="0.515" stop-color="#090909" stop-opacity="0.6"/>
<stop offset="1" stop-color="white" stop-opacity="0"/>
</linearGradient>
<clipPath id="clip0_38_64">
<rect width="1442" height="1150" fill="white" transform="translate(-2)"/>
</clipPath>
</defs>
</svg>
