<svg width="646" height="760" viewBox="0 0 646 760" fill="none" xmlns="http://www.w3.org/2000/svg">
<path opacity="0.3" d="M645.931 69.8482C555.555 8.88864 444.376 -13.2451 336.852 8.31617C229.329 29.8774 134.269 93.3674 72.5835 184.819C10.8985 276.271 -12.3581 388.193 7.92961 495.964C28.2174 603.735 90.3877 698.527 180.764 759.487L293.134 592.892C246.421 561.384 214.288 512.39 203.802 456.687C193.316 400.984 205.336 343.135 237.219 295.867C269.102 248.599 318.235 215.783 373.81 204.639C429.385 193.495 486.849 204.935 533.561 236.443L645.931 69.8482Z" fill="url(#paint0_linear_38_62)" fill-opacity="0.2"/>
<defs>
<linearGradient id="paint0_linear_38_62" x1="425.174" y1="-97.1152" x2="637.362" y2="602.7" gradientUnits="userSpaceOnUse">
<stop stop-color="#737070"/>
<stop offset="0.515" stop-color="#090909" stop-opacity="0.6"/>
<stop offset="1" stop-color="white" stop-opacity="0"/>
</linearGradient>
</defs>
</svg>
